<?xml version="1.0" encoding="UTF-8"?>
<!DOCTYPE svg PUBLIC "-//W3C//DTD SVG 1.1//EN" "http://www.w3.org/Graphics/SVG/1.1/DTD/svg11.dtd">
<!-- Creator: CorelDRAW 2019 (64-Bit) -->
<svg xmlns="http://www.w3.org/2000/svg" xml:space="preserve" width="11.6929in" height="8.26772in" version="1.1" style="shape-rendering:geometricPrecision; text-rendering:geometricPrecision; image-rendering:optimizeQuality; fill-rule:evenodd; clip-rule:evenodd"
viewBox="0 0 11692.91 8267.72"
 xmlns:xlink="http://www.w3.org/1999/xlink">
 <defs>
  <style type="text/css">
   <![CDATA[
    .fil0 {fill:#E3EBF8}
   ]]>
  </style>
 </defs>
 <g id="Layer_x0020_1">
  <metadata id="CorelCorpID_0Corel-Layer"/>
  <path class="fil0" d="M5843.65 1780.35l-439.13 0 0 182.75c0,242.52 196.6,439.13 439.13,439.13l439.12 0 0 -182.75 -439.12 0c-141.59,0 -256.38,-114.78 -256.38,-256.38l0 -8.87 256.38 0 0 173.88 439.12 0 0 -182.75c0,-242.52 -196.6,-439.13 -439.12,-439.13l-439.13 0 0 182.75 439.13 0c141.59,0 256.38,114.78 256.38,256.38l0 8.87 -256.38 0 0 -173.87z"/>
 </g>
</svg>
